<mxfile host="Electron" agent="Mozilla/5.0 (Macintosh; Intel Mac OS X 10_15_7) AppleWebKit/537.36 (KHTML, like Gecko) draw.io/26.2.15 Chrome/134.0.6998.205 Electron/35.2.1 Safari/537.36" version="26.2.15">
  <diagram name="parts-of-project" id="q3-GdXNDrUG5JiLFlPh2">
    <mxGraphModel dx="2221" dy="931" grid="0" gridSize="10" guides="1" tooltips="1" connect="1" arrows="1" fold="1" page="1" pageScale="1" pageWidth="827" pageHeight="583" math="0" shadow="0">
      <root>
        <mxCell id="0" />
        <mxCell id="1" parent="0" />
        <mxCell id="qFa7paCgfUkytqQC-a15-46" value="" style="rounded=0;whiteSpace=wrap;html=1;fillStyle=dots;fillColor=#f5f5f5;fontColor=#333333;strokeColor=#666666;" vertex="1" parent="1">
          <mxGeometry x="-240" width="1280" height="580" as="geometry" />
        </mxCell>
        <mxCell id="qFa7paCgfUkytqQC-a15-5" style="edgeStyle=orthogonalEdgeStyle;rounded=0;orthogonalLoop=1;jettySize=auto;html=1;entryX=1;entryY=0.5;entryDx=0;entryDy=0;endArrow=block;endFill=1;sketch=1;curveFitting=1;jiggle=2;fillColor=#d5e8d4;strokeColor=#82b366;" edge="1" parent="1" source="qFa7paCgfUkytqQC-a15-1" target="qFa7paCgfUkytqQC-a15-3">
          <mxGeometry relative="1" as="geometry" />
        </mxCell>
        <mxCell id="qFa7paCgfUkytqQC-a15-6" style="edgeStyle=orthogonalEdgeStyle;rounded=0;orthogonalLoop=1;jettySize=auto;html=1;entryX=0;entryY=0.5;entryDx=0;entryDy=0;endArrow=block;endFill=1;sketch=1;curveFitting=1;jiggle=2;fillColor=#dae8fc;strokeColor=#6c8ebf;" edge="1" parent="1" source="qFa7paCgfUkytqQC-a15-1" target="qFa7paCgfUkytqQC-a15-4">
          <mxGeometry relative="1" as="geometry" />
        </mxCell>
        <mxCell id="qFa7paCgfUkytqQC-a15-1" value="&lt;font face=&quot;Comic Sans MS&quot; style=&quot;font-size: 30px;&quot;&gt;Data&lt;/font&gt;&lt;div&gt;&lt;font face=&quot;Comic Sans MS&quot; style=&quot;font-size: 30px;&quot;&gt;Analytics&lt;/font&gt;&lt;/div&gt;" style="ellipse;whiteSpace=wrap;html=1;aspect=fixed;sketch=1;curveFitting=1;jiggle=2;" vertex="1" parent="1">
          <mxGeometry x="334" y="212" width="160" height="160" as="geometry" />
        </mxCell>
        <mxCell id="qFa7paCgfUkytqQC-a15-3" value="&lt;font face=&quot;Comic Sans MS&quot; style=&quot;font-size: 30px;&quot;&gt;Advance&lt;/font&gt;&lt;div&gt;&lt;font face=&quot;Comic Sans MS&quot; style=&quot;font-size: 16px;&quot;&gt;Analytics&lt;/font&gt;&lt;/div&gt;" style="ellipse;whiteSpace=wrap;html=1;sketch=1;curveFitting=1;jiggle=2;fillColor=#d5e8d4;strokeColor=#82b366;fillStyle=dashed;" vertex="1" parent="1">
          <mxGeometry x="26" y="227" width="162.5" height="130" as="geometry" />
        </mxCell>
        <mxCell id="qFa7paCgfUkytqQC-a15-4" value="&lt;font face=&quot;Comic Sans MS&quot; style=&quot;font-size: 30px;&quot;&gt;Exploratory&lt;/font&gt;&lt;div&gt;&lt;font style=&quot;font-size: 15px;&quot; face=&quot;Comic Sans MS&quot;&gt;Data Analysis&lt;/font&gt;&lt;/div&gt;&lt;div&gt;&lt;font style=&quot;font-size: 15px;&quot; face=&quot;Comic Sans MS&quot;&gt;(EDA)&lt;/font&gt;&lt;/div&gt;" style="ellipse;whiteSpace=wrap;html=1;sketch=1;curveFitting=1;jiggle=2;fillColor=#dae8fc;strokeColor=#6c8ebf;fillStyle=dashed;" vertex="1" parent="1">
          <mxGeometry x="627" y="215" width="196" height="153" as="geometry" />
        </mxCell>
        <mxCell id="qFa7paCgfUkytqQC-a15-7" value="&lt;font style=&quot;font-size: 15px;&quot; face=&quot;Helvetica&quot;&gt;&lt;b style=&quot;&quot;&gt;Change Over Time&lt;/b&gt;&lt;/font&gt;&lt;div&gt;&lt;font style=&quot;font-size: 11px;&quot; face=&quot;Helvetica&quot;&gt;Trends&lt;/font&gt;&lt;/div&gt;" style="rounded=1;whiteSpace=wrap;html=1;fillColor=#d5e8d4;strokeColor=#82b366;sketch=1;curveFitting=1;jiggle=2;" vertex="1" parent="1">
          <mxGeometry x="136" y="100" width="140" height="60" as="geometry" />
        </mxCell>
        <mxCell id="qFa7paCgfUkytqQC-a15-10" value="&lt;font style=&quot;font-size: 15px;&quot; face=&quot;Helvetica&quot;&gt;&lt;b style=&quot;&quot;&gt;Cumulative&lt;/b&gt;&lt;/font&gt;&lt;div&gt;&lt;span style=&quot;font-size: 15px;&quot;&gt;&lt;b&gt;Analysis&lt;/b&gt;&lt;/span&gt;&lt;/div&gt;" style="rounded=1;whiteSpace=wrap;html=1;fillColor=#d5e8d4;strokeColor=#82b366;sketch=1;curveFitting=1;jiggle=2;" vertex="1" parent="1">
          <mxGeometry x="-64" y="100" width="110" height="60" as="geometry" />
        </mxCell>
        <mxCell id="qFa7paCgfUkytqQC-a15-11" value="&lt;span style=&quot;font-size: 15px;&quot;&gt;&lt;b&gt;Performance&lt;/b&gt;&lt;/span&gt;&lt;br&gt;&lt;div&gt;&lt;span style=&quot;font-size: 15px;&quot;&gt;&lt;b&gt;Analysis&lt;/b&gt;&lt;/span&gt;&lt;/div&gt;" style="rounded=1;whiteSpace=wrap;html=1;fillColor=#d5e8d4;strokeColor=#82b366;sketch=1;curveFitting=1;jiggle=2;" vertex="1" parent="1">
          <mxGeometry x="-204" y="215" width="110" height="60" as="geometry" />
        </mxCell>
        <mxCell id="qFa7paCgfUkytqQC-a15-12" value="&lt;span style=&quot;font-size: 15px;&quot;&gt;&lt;b&gt;Part-toWhole&lt;/b&gt;&lt;/span&gt;" style="rounded=1;whiteSpace=wrap;html=1;fillColor=#d5e8d4;strokeColor=#82b366;sketch=1;curveFitting=1;jiggle=2;" vertex="1" parent="1">
          <mxGeometry x="-174" y="340" width="110" height="60" as="geometry" />
        </mxCell>
        <mxCell id="qFa7paCgfUkytqQC-a15-13" value="&lt;span style=&quot;font-size: 15px;&quot;&gt;&lt;b&gt;Data&lt;/b&gt;&lt;/span&gt;&lt;div&gt;&lt;span style=&quot;font-size: 15px;&quot;&gt;&lt;b&gt;Segmentation&lt;/b&gt;&lt;/span&gt;&lt;/div&gt;" style="rounded=1;whiteSpace=wrap;html=1;fillColor=#d5e8d4;strokeColor=#82b366;sketch=1;curveFitting=1;jiggle=2;" vertex="1" parent="1">
          <mxGeometry x="-64" y="460" width="110" height="60" as="geometry" />
        </mxCell>
        <mxCell id="qFa7paCgfUkytqQC-a15-14" value="&lt;span style=&quot;font-size: 15px;&quot;&gt;&lt;b&gt;Reporting&lt;/b&gt;&lt;/span&gt;" style="rounded=1;whiteSpace=wrap;html=1;fillColor=#d5e8d4;strokeColor=#82b366;sketch=1;curveFitting=1;jiggle=2;" vertex="1" parent="1">
          <mxGeometry x="146" y="460" width="110" height="60" as="geometry" />
        </mxCell>
        <mxCell id="qFa7paCgfUkytqQC-a15-15" value="" style="endArrow=none;dashed=1;html=1;rounded=0;entryX=0.5;entryY=1;entryDx=0;entryDy=0;exitX=1;exitY=0;exitDx=0;exitDy=0;fillColor=#d5e8d4;strokeColor=#82b366;" edge="1" parent="1" source="qFa7paCgfUkytqQC-a15-3" target="qFa7paCgfUkytqQC-a15-7">
          <mxGeometry width="50" height="50" relative="1" as="geometry">
            <mxPoint x="76" y="300" as="sourcePoint" />
            <mxPoint x="126" y="250" as="targetPoint" />
          </mxGeometry>
        </mxCell>
        <mxCell id="qFa7paCgfUkytqQC-a15-16" value="" style="endArrow=none;dashed=1;html=1;rounded=0;entryX=0.5;entryY=1;entryDx=0;entryDy=0;exitX=0.217;exitY=0.067;exitDx=0;exitDy=0;fillColor=#d5e8d4;strokeColor=#82b366;exitPerimeter=0;" edge="1" parent="1" source="qFa7paCgfUkytqQC-a15-3" target="qFa7paCgfUkytqQC-a15-10">
          <mxGeometry width="50" height="50" relative="1" as="geometry">
            <mxPoint x="175" y="256" as="sourcePoint" />
            <mxPoint x="216" y="170" as="targetPoint" />
          </mxGeometry>
        </mxCell>
        <mxCell id="qFa7paCgfUkytqQC-a15-17" value="" style="endArrow=none;dashed=1;html=1;rounded=0;entryX=1;entryY=0.5;entryDx=0;entryDy=0;exitX=-0.018;exitY=0.458;exitDx=0;exitDy=0;fillColor=#d5e8d4;strokeColor=#82b366;exitPerimeter=0;" edge="1" parent="1" source="qFa7paCgfUkytqQC-a15-3" target="qFa7paCgfUkytqQC-a15-11">
          <mxGeometry width="50" height="50" relative="1" as="geometry">
            <mxPoint x="6" y="316" as="sourcePoint" />
            <mxPoint x="-64" y="240" as="targetPoint" />
          </mxGeometry>
        </mxCell>
        <mxCell id="qFa7paCgfUkytqQC-a15-18" value="" style="endArrow=none;dashed=1;html=1;rounded=0;entryX=1;entryY=0.5;entryDx=0;entryDy=0;exitX=0.071;exitY=0.756;exitDx=0;exitDy=0;fillColor=#d5e8d4;strokeColor=#82b366;exitPerimeter=0;" edge="1" parent="1" source="qFa7paCgfUkytqQC-a15-3" target="qFa7paCgfUkytqQC-a15-12">
          <mxGeometry width="50" height="50" relative="1" as="geometry">
            <mxPoint x="33" y="297" as="sourcePoint" />
            <mxPoint x="-84" y="255" as="targetPoint" />
          </mxGeometry>
        </mxCell>
        <mxCell id="qFa7paCgfUkytqQC-a15-19" value="" style="endArrow=none;dashed=1;html=1;rounded=0;entryX=0.5;entryY=0;entryDx=0;entryDy=0;exitX=0.269;exitY=0.947;exitDx=0;exitDy=0;fillColor=#d5e8d4;strokeColor=#82b366;exitPerimeter=0;" edge="1" parent="1" source="qFa7paCgfUkytqQC-a15-3" target="qFa7paCgfUkytqQC-a15-13">
          <mxGeometry width="50" height="50" relative="1" as="geometry">
            <mxPoint x="48" y="335" as="sourcePoint" />
            <mxPoint x="-54" y="380" as="targetPoint" />
          </mxGeometry>
        </mxCell>
        <mxCell id="qFa7paCgfUkytqQC-a15-20" value="" style="endArrow=none;dashed=1;html=1;rounded=0;entryX=0.546;entryY=-0.023;entryDx=0;entryDy=0;exitX=0.795;exitY=0.929;exitDx=0;exitDy=0;fillColor=#d5e8d4;strokeColor=#82b366;exitPerimeter=0;entryPerimeter=0;" edge="1" parent="1" source="qFa7paCgfUkytqQC-a15-3" target="qFa7paCgfUkytqQC-a15-14">
          <mxGeometry width="50" height="50" relative="1" as="geometry">
            <mxPoint x="80" y="360" as="sourcePoint" />
            <mxPoint x="1" y="470" as="targetPoint" />
          </mxGeometry>
        </mxCell>
        <mxCell id="qFa7paCgfUkytqQC-a15-21" value="&lt;font style=&quot;font-size: 20px; color: rgb(151, 208, 119);&quot;&gt;7&lt;/font&gt;" style="ellipse;whiteSpace=wrap;html=1;aspect=fixed;fillColor=#d5e8d4;strokeColor=#82b366;sketch=1;curveFitting=1;jiggle=2;shadow=0;" vertex="1" parent="1">
          <mxGeometry x="256" y="70" width="30" height="30" as="geometry" />
        </mxCell>
        <mxCell id="qFa7paCgfUkytqQC-a15-22" value="&lt;font style=&quot;font-size: 20px; color: rgb(151, 208, 119);&quot;&gt;8&lt;/font&gt;" style="ellipse;whiteSpace=wrap;html=1;aspect=fixed;fillColor=#d5e8d4;strokeColor=#82b366;sketch=1;curveFitting=1;jiggle=2;shadow=0;" vertex="1" parent="1">
          <mxGeometry x="40" y="70" width="30" height="30" as="geometry" />
        </mxCell>
        <mxCell id="qFa7paCgfUkytqQC-a15-23" value="&lt;font style=&quot;font-size: 20px; color: rgb(151, 208, 119);&quot;&gt;9&lt;/font&gt;" style="ellipse;whiteSpace=wrap;html=1;aspect=fixed;fillColor=#d5e8d4;strokeColor=#82b366;sketch=1;curveFitting=1;jiggle=2;shadow=0;" vertex="1" parent="1">
          <mxGeometry x="-110" y="185" width="30" height="30" as="geometry" />
        </mxCell>
        <mxCell id="qFa7paCgfUkytqQC-a15-24" value="&lt;font style=&quot;font-size: 20px; color: rgb(151, 208, 119);&quot;&gt;10&lt;/font&gt;" style="ellipse;whiteSpace=wrap;html=1;aspect=fixed;fillColor=#d5e8d4;strokeColor=#82b366;sketch=1;curveFitting=1;jiggle=2;shadow=0;" vertex="1" parent="1">
          <mxGeometry x="-80" y="310" width="30" height="30" as="geometry" />
        </mxCell>
        <mxCell id="qFa7paCgfUkytqQC-a15-25" value="&lt;font style=&quot;font-size: 20px; color: rgb(151, 208, 119);&quot;&gt;11&lt;/font&gt;" style="ellipse;whiteSpace=wrap;html=1;aspect=fixed;fillColor=#d5e8d4;strokeColor=#82b366;sketch=1;curveFitting=1;jiggle=2;shadow=0;" vertex="1" parent="1">
          <mxGeometry x="40" y="430" width="30" height="30" as="geometry" />
        </mxCell>
        <mxCell id="qFa7paCgfUkytqQC-a15-26" value="&lt;font style=&quot;font-size: 20px; color: rgb(151, 208, 119);&quot;&gt;12&lt;/font&gt;" style="ellipse;whiteSpace=wrap;html=1;aspect=fixed;fillColor=#d5e8d4;strokeColor=#82b366;sketch=1;curveFitting=1;jiggle=2;shadow=0;" vertex="1" parent="1">
          <mxGeometry x="246" y="430" width="30" height="30" as="geometry" />
        </mxCell>
        <mxCell id="qFa7paCgfUkytqQC-a15-27" value="&lt;span style=&quot;font-size: 15px;&quot;&gt;&lt;b&gt;Database&lt;/b&gt;&lt;/span&gt;&lt;div&gt;&lt;span style=&quot;font-size: 15px;&quot;&gt;&lt;b&gt;Exploration&lt;/b&gt;&lt;/span&gt;&lt;/div&gt;" style="rounded=1;whiteSpace=wrap;html=1;fillColor=#dae8fc;strokeColor=#6c8ebf;sketch=1;curveFitting=1;jiggle=2;" vertex="1" parent="1">
          <mxGeometry x="547" y="100" width="110" height="60" as="geometry" />
        </mxCell>
        <mxCell id="qFa7paCgfUkytqQC-a15-29" value="&lt;span style=&quot;font-size: 15px;&quot;&gt;&lt;b&gt;Dimensions&lt;/b&gt;&lt;/span&gt;&lt;div&gt;&lt;span style=&quot;font-size: 15px;&quot;&gt;&lt;b&gt;Exploration&lt;/b&gt;&lt;/span&gt;&lt;/div&gt;" style="rounded=1;whiteSpace=wrap;html=1;fillColor=#dae8fc;strokeColor=#6c8ebf;sketch=1;curveFitting=1;jiggle=2;" vertex="1" parent="1">
          <mxGeometry x="767" y="100" width="110" height="60" as="geometry" />
        </mxCell>
        <mxCell id="qFa7paCgfUkytqQC-a15-30" value="&lt;span style=&quot;font-size: 15px;&quot;&gt;&lt;b&gt;Data&lt;/b&gt;&lt;/span&gt;&lt;div&gt;&lt;span style=&quot;font-size: 15px;&quot;&gt;&lt;b&gt;Exploration&lt;/b&gt;&lt;/span&gt;&lt;/div&gt;" style="rounded=1;whiteSpace=wrap;html=1;fillColor=#dae8fc;strokeColor=#6c8ebf;sketch=1;curveFitting=1;jiggle=2;" vertex="1" parent="1">
          <mxGeometry x="887" y="210" width="110" height="60" as="geometry" />
        </mxCell>
        <mxCell id="qFa7paCgfUkytqQC-a15-31" value="&lt;span style=&quot;font-size: 15px;&quot;&gt;&lt;b&gt;Measure&lt;/b&gt;&lt;/span&gt;&lt;br&gt;&lt;div&gt;&lt;span style=&quot;font-size: 15px;&quot;&gt;&lt;b&gt;Exploration&lt;/b&gt;&lt;/span&gt;&lt;/div&gt;&lt;div&gt;&lt;font style=&quot;font-size: 11px;&quot;&gt;Big Numbers&lt;/font&gt;&lt;/div&gt;" style="rounded=1;whiteSpace=wrap;html=1;fillColor=#dae8fc;strokeColor=#6c8ebf;sketch=1;curveFitting=1;jiggle=2;" vertex="1" parent="1">
          <mxGeometry x="887" y="350" width="120" height="70" as="geometry" />
        </mxCell>
        <mxCell id="qFa7paCgfUkytqQC-a15-32" value="&lt;span style=&quot;font-size: 15px;&quot;&gt;&lt;b&gt;Ranking&lt;/b&gt;&lt;/span&gt;&lt;br&gt;&lt;div&gt;&lt;font style=&quot;font-size: 11px;&quot;&gt;Top N - Bottom N&lt;/font&gt;&lt;/div&gt;" style="rounded=1;whiteSpace=wrap;html=1;fillColor=#dae8fc;strokeColor=#6c8ebf;sketch=1;curveFitting=1;jiggle=2;" vertex="1" parent="1">
          <mxGeometry x="519.5" y="440" width="165" height="70" as="geometry" />
        </mxCell>
        <mxCell id="qFa7paCgfUkytqQC-a15-33" value="&lt;span style=&quot;font-size: 15px;&quot;&gt;&lt;b&gt;Magnitude&lt;/b&gt;&lt;/span&gt;" style="rounded=1;whiteSpace=wrap;html=1;fillColor=#dae8fc;strokeColor=#6c8ebf;sketch=1;curveFitting=1;jiggle=2;" vertex="1" parent="1">
          <mxGeometry x="757" y="445" width="110" height="60" as="geometry" />
        </mxCell>
        <mxCell id="qFa7paCgfUkytqQC-a15-34" value="" style="endArrow=none;dashed=1;html=1;rounded=0;entryX=0;entryY=0;entryDx=0;entryDy=0;exitX=0.5;exitY=1;exitDx=0;exitDy=0;fillColor=#dae8fc;strokeColor=#6c8ebf;" edge="1" parent="1" source="qFa7paCgfUkytqQC-a15-27" target="qFa7paCgfUkytqQC-a15-4">
          <mxGeometry width="50" height="50" relative="1" as="geometry">
            <mxPoint x="547" y="140" as="sourcePoint" />
            <mxPoint x="598" y="251" as="targetPoint" />
          </mxGeometry>
        </mxCell>
        <mxCell id="qFa7paCgfUkytqQC-a15-35" value="" style="endArrow=none;dashed=1;html=1;rounded=0;entryX=1;entryY=0;entryDx=0;entryDy=0;exitX=0.5;exitY=1;exitDx=0;exitDy=0;fillColor=#dae8fc;strokeColor=#6c8ebf;" edge="1" parent="1" source="qFa7paCgfUkytqQC-a15-29" target="qFa7paCgfUkytqQC-a15-4">
          <mxGeometry width="50" height="50" relative="1" as="geometry">
            <mxPoint x="612" y="170" as="sourcePoint" />
            <mxPoint x="666" y="247" as="targetPoint" />
          </mxGeometry>
        </mxCell>
        <mxCell id="qFa7paCgfUkytqQC-a15-36" value="" style="endArrow=none;dashed=1;html=1;rounded=0;entryX=0.954;entryY=0.313;entryDx=0;entryDy=0;exitX=0;exitY=0.5;exitDx=0;exitDy=0;fillColor=#dae8fc;strokeColor=#6c8ebf;entryPerimeter=0;" edge="1" parent="1" source="qFa7paCgfUkytqQC-a15-30" target="qFa7paCgfUkytqQC-a15-4">
          <mxGeometry width="50" height="50" relative="1" as="geometry">
            <mxPoint x="872" y="170" as="sourcePoint" />
            <mxPoint x="804" y="247" as="targetPoint" />
          </mxGeometry>
        </mxCell>
        <mxCell id="qFa7paCgfUkytqQC-a15-37" value="" style="endArrow=none;dashed=1;html=1;rounded=0;entryX=0.944;entryY=0.718;entryDx=0;entryDy=0;exitX=0;exitY=0.25;exitDx=0;exitDy=0;fillColor=#dae8fc;strokeColor=#6c8ebf;entryPerimeter=0;" edge="1" parent="1" source="qFa7paCgfUkytqQC-a15-31" target="qFa7paCgfUkytqQC-a15-4">
          <mxGeometry width="50" height="50" relative="1" as="geometry">
            <mxPoint x="897" y="250" as="sourcePoint" />
            <mxPoint x="824" y="273" as="targetPoint" />
          </mxGeometry>
        </mxCell>
        <mxCell id="qFa7paCgfUkytqQC-a15-38" value="" style="endArrow=none;dashed=1;html=1;rounded=0;entryX=0.74;entryY=0.947;entryDx=0;entryDy=0;exitX=0.5;exitY=0;exitDx=0;exitDy=0;fillColor=#dae8fc;strokeColor=#6c8ebf;entryPerimeter=0;" edge="1" parent="1" source="qFa7paCgfUkytqQC-a15-33" target="qFa7paCgfUkytqQC-a15-4">
          <mxGeometry width="50" height="50" relative="1" as="geometry">
            <mxPoint x="867" y="420" as="sourcePoint" />
            <mxPoint x="792" y="377" as="targetPoint" />
          </mxGeometry>
        </mxCell>
        <mxCell id="qFa7paCgfUkytqQC-a15-39" value="" style="endArrow=none;dashed=1;html=1;rounded=0;entryX=0.251;entryY=0.947;entryDx=0;entryDy=0;exitX=0.5;exitY=0;exitDx=0;exitDy=0;fillColor=#dae8fc;strokeColor=#6c8ebf;entryPerimeter=0;" edge="1" parent="1" source="qFa7paCgfUkytqQC-a15-32" target="qFa7paCgfUkytqQC-a15-4">
          <mxGeometry width="50" height="50" relative="1" as="geometry">
            <mxPoint x="627" y="440" as="sourcePoint" />
            <mxPoint x="587" y="355" as="targetPoint" />
          </mxGeometry>
        </mxCell>
        <mxCell id="qFa7paCgfUkytqQC-a15-40" value="&lt;font style=&quot;font-size: 20px; color: rgb(51, 153, 255);&quot;&gt;1&lt;/font&gt;" style="ellipse;whiteSpace=wrap;html=1;aspect=fixed;fillColor=#dae8fc;strokeColor=#6c8ebf;sketch=1;curveFitting=1;jiggle=2;shadow=0;" vertex="1" parent="1">
          <mxGeometry x="527" y="80" width="30" height="30" as="geometry" />
        </mxCell>
        <mxCell id="qFa7paCgfUkytqQC-a15-41" value="&lt;font style=&quot;font-size: 20px; color: rgb(51, 153, 255);&quot;&gt;2&lt;/font&gt;" style="ellipse;whiteSpace=wrap;html=1;aspect=fixed;fillColor=#dae8fc;strokeColor=#6c8ebf;sketch=1;curveFitting=1;jiggle=2;shadow=0;" vertex="1" parent="1">
          <mxGeometry x="747" y="80" width="30" height="30" as="geometry" />
        </mxCell>
        <mxCell id="qFa7paCgfUkytqQC-a15-42" value="&lt;font style=&quot;font-size: 20px; color: rgb(51, 153, 255);&quot;&gt;3&lt;/font&gt;" style="ellipse;whiteSpace=wrap;html=1;aspect=fixed;fillColor=#dae8fc;strokeColor=#6c8ebf;sketch=1;curveFitting=1;jiggle=2;shadow=0;" vertex="1" parent="1">
          <mxGeometry x="867" y="185" width="30" height="30" as="geometry" />
        </mxCell>
        <mxCell id="qFa7paCgfUkytqQC-a15-43" value="&lt;font style=&quot;font-size: 20px; color: rgb(51, 153, 255);&quot;&gt;4&lt;/font&gt;" style="ellipse;whiteSpace=wrap;html=1;aspect=fixed;fillColor=#dae8fc;strokeColor=#6c8ebf;sketch=1;curveFitting=1;jiggle=2;shadow=0;" vertex="1" parent="1">
          <mxGeometry x="867" y="327" width="30" height="30" as="geometry" />
        </mxCell>
        <mxCell id="qFa7paCgfUkytqQC-a15-44" value="&lt;font style=&quot;font-size: 20px; color: rgb(51, 153, 255);&quot;&gt;5&lt;/font&gt;" style="ellipse;whiteSpace=wrap;html=1;aspect=fixed;fillColor=#dae8fc;strokeColor=#6c8ebf;sketch=1;curveFitting=1;jiggle=2;shadow=0;" vertex="1" parent="1">
          <mxGeometry x="737" y="420" width="30" height="30" as="geometry" />
        </mxCell>
        <mxCell id="qFa7paCgfUkytqQC-a15-45" value="&lt;font style=&quot;font-size: 20px; color: rgb(51, 153, 255);&quot;&gt;6&lt;/font&gt;" style="ellipse;whiteSpace=wrap;html=1;aspect=fixed;fillColor=#dae8fc;strokeColor=#6c8ebf;sketch=1;curveFitting=1;jiggle=2;shadow=0;" vertex="1" parent="1">
          <mxGeometry x="507" y="415" width="30" height="30" as="geometry" />
        </mxCell>
      </root>
    </mxGraphModel>
  </diagram>
</mxfile>
